<mxfile host="app.diagrams.net" modified="2023-11-10T09:27:20.182Z" agent="Mozilla/5.0 (Windows NT 10.0; Win64; x64) AppleWebKit/537.36 (KHTML, like Gecko) Chrome/119.0.0.0 Safari/537.36" etag="hq4n-ogxpNTC1s3nzsWv" version="22.1.0" type="github">
  <diagram name="Sayfa -1" id="Gj2gSd7K2H69_6VzcRKl">
    <mxGraphModel dx="1050" dy="1699" grid="1" gridSize="10" guides="1" tooltips="1" connect="1" arrows="1" fold="1" page="1" pageScale="1" pageWidth="827" pageHeight="1169" math="0" shadow="0">
      <root>
        <mxCell id="0" />
        <mxCell id="1" parent="0" />
        <mxCell id="wFkCNshnGClv44x8eFzm-1" value="Original Image" style="rounded=0;whiteSpace=wrap;html=1;" vertex="1" parent="1">
          <mxGeometry x="340" y="-480" width="120" height="60" as="geometry" />
        </mxCell>
        <mxCell id="wFkCNshnGClv44x8eFzm-2" value="Grayscale Image" style="rounded=0;whiteSpace=wrap;html=1;" vertex="1" parent="1">
          <mxGeometry x="340" y="-330" width="120" height="60" as="geometry" />
        </mxCell>
        <mxCell id="wFkCNshnGClv44x8eFzm-9" value="" style="edgeStyle=orthogonalEdgeStyle;rounded=0;orthogonalLoop=1;jettySize=auto;html=1;" edge="1" parent="1" source="wFkCNshnGClv44x8eFzm-3" target="wFkCNshnGClv44x8eFzm-2">
          <mxGeometry relative="1" as="geometry">
            <Array as="points">
              <mxPoint x="400" y="-390" />
              <mxPoint x="400" y="-390" />
            </Array>
          </mxGeometry>
        </mxCell>
        <mxCell id="wFkCNshnGClv44x8eFzm-3" value="640x480" style="text;html=1;strokeColor=none;fillColor=none;align=center;verticalAlign=middle;whiteSpace=wrap;rounded=0;" vertex="1" parent="1">
          <mxGeometry x="400" y="-440" width="60" height="30" as="geometry" />
        </mxCell>
        <mxCell id="wFkCNshnGClv44x8eFzm-10" value="" style="edgeStyle=orthogonalEdgeStyle;rounded=0;orthogonalLoop=1;jettySize=auto;html=1;" edge="1" parent="1" source="wFkCNshnGClv44x8eFzm-4" target="wFkCNshnGClv44x8eFzm-5">
          <mxGeometry relative="1" as="geometry">
            <Array as="points">
              <mxPoint x="400" y="-250" />
              <mxPoint x="400" y="-250" />
            </Array>
          </mxGeometry>
        </mxCell>
        <mxCell id="wFkCNshnGClv44x8eFzm-4" value="640x480" style="text;html=1;strokeColor=none;fillColor=none;align=center;verticalAlign=middle;whiteSpace=wrap;rounded=0;" vertex="1" parent="1">
          <mxGeometry x="400" y="-290" width="60" height="30" as="geometry" />
        </mxCell>
        <mxCell id="wFkCNshnGClv44x8eFzm-5" value="Smoothed Image" style="rounded=0;whiteSpace=wrap;html=1;" vertex="1" parent="1">
          <mxGeometry x="340" y="-190" width="120" height="60" as="geometry" />
        </mxCell>
        <mxCell id="wFkCNshnGClv44x8eFzm-11" value="Noise reduction with avaraging filter" style="text;html=1;strokeColor=none;fillColor=none;align=center;verticalAlign=middle;whiteSpace=wrap;rounded=0;" vertex="1" parent="1">
          <mxGeometry x="400" y="-250" width="130" height="30" as="geometry" />
        </mxCell>
        <mxCell id="wFkCNshnGClv44x8eFzm-12" value="640x480" style="text;html=1;strokeColor=none;fillColor=none;align=center;verticalAlign=middle;whiteSpace=wrap;rounded=0;" vertex="1" parent="1">
          <mxGeometry x="400" y="-150" width="60" height="30" as="geometry" />
        </mxCell>
      </root>
    </mxGraphModel>
  </diagram>
</mxfile>
